<?xml version="1.0" encoding="utf-8" ?>
<svg xmlns="http://www.w3.org/2000/svg" xmlns:xlink="http://www.w3.org/1999/xlink" width="1024" height="1024" viewBox="0 0 1024 1024">
  <defs>
    <style>
      .floating-anim {
        animation: floatAndPulse 4s ease-in-out infinite;
        transform-origin: 512px 512px;
      }
      
      @keyframes floatAndPulse {
        0% {
          transform: translateY(0px) scale(1);
        }
        50% {
          transform: translateY(-20px) scale(1.02);
        }
        100% {
          transform: translateY(0px) scale(1);
        }
      }
    </style>
  </defs>

  <!-- بداية مجموعة الأنيميشن -->
  <g class="floating-anim">
    <path fill="#FEFEFE" d="M531.785 228.055C584.976 214.445 645.1 236.221 665.052 290.508C673.092 312.383 677.354 336.94 682.431 359.802C689.248 391.242 696.462 422.594 704.071 453.851L709.206 474.084C710.135 478.696 711.169 483.287 712.306 487.853C712.702 488.919 713.334 490.421 713.554 491.488C715.59 491.518 717.226 491.407 719.181 491.994C734.007 493.686 755.533 486.451 767.838 478.613C781.078 470.18 794.879 456.252 797.239 440.083C798.423 431.975 798.254 425.974 800.163 417.731L802.711 418.228C803.428 415.971 804.358 413.34 805.329 411.179C809.888 401.23 818.165 393.465 828.383 389.55C839.407 385.364 850.598 385.863 861.287 390.684C865.672 393.067 867.301 393.779 870.704 397.53L871.476 397.975C872.536 398.592 873.083 399.019 874.051 399.763L874.788 399.854C880.054 408.237 881.148 417.377 881.076 426.993C884.766 429.879 885.999 430.955 888.714 434.99C894.025 442.631 895.524 449.373 893.931 458.735C893.496 461.29 891.468 467.481 889.96 469.472C885.588 506.612 953.101 487.382 966.643 542.014C979.658 542.711 986.237 553.509 978.219 564.381C976.52 566.684 974.431 568.592 972.987 571.05C973.839 584.463 975.23 597.84 976.234 611.246C977.578 629.212 978.963 647.197 980.27 665.166C981.43 681.118 983.275 696.996 983.033 713.018C996.458 720.97 993.831 729.588 983.211 738.32C982.239 754.204 975.959 764.716 964.5 775.487C960.357 779.382 948.33 785.352 947.929 790.124C947.309 797.512 958.24 809.325 945.39 812.221C943.241 812.705 939.908 814.553 937.387 813.17C929.936 808.342 928.145 798.22 921.716 791.177C901.163 788.296 881.6 780.619 870.985 761.634C853.965 761.159 849.78 748.701 862.326 738.167C859.36 728.73 856.594 720.339 852.912 711.157C844.813 730.286 831.003 751.975 819.05 768.876C771.074 837.618 703.942 890.735 626.009 921.615C506.534 969.991 397.84 965.401 280.183 915.557C224.818 892.708 175.186 857.905 134.84 813.637C127.834 810.5 105.072 776.233 100.346 768.481C108.391 774.262 115.224 775.318 123.675 779.189C145.727 789.291 168.256 795.847 191.058 803.811C190.734 799.901 189.809 792.774 191.766 789.444C195.157 783.675 200.961 777.443 205.411 772.394C213.521 763.173 221.725 754.034 230.021 744.979C235.493 738.917 240.826 732.066 246.798 726.571C261.614 712.94 276.278 718.827 281.676 737.247C286.506 733.92 294.02 728.995 299.989 728.63C322.278 727.463 331.545 750.449 342.926 765.367C355.914 782.391 377.221 802.234 400.525 799.906C407.703 799.189 415.498 793.936 419.601 788.032C440.259 758.308 434.538 713.037 429.918 679.335C413.753 681.54 401.804 684.937 386.049 688.7C374.147 691.443 362.228 694.108 350.291 696.694C343.377 698.243 332.916 701.623 326.5 701.972C321.366 702.283 316.25 701.104 311.77 698.577C301.363 692.583 297.305 682.075 294.348 671.22C289.512 653.467 285.768 635.621 281.818 617.67L265.181 542.601C260.343 520.796 255.66 498.958 251.131 477.088C247.249 459.048 242.054 439.263 241.235 420.888C240.601 406.664 244.239 383.93 251.194 371.442C260.018 351.797 275.539 333.317 294.02 322.163C301.089 315.857 317.879 309.867 327.078 307.176C348.808 298.67 381.272 301.14 402.902 308.855C412.823 311.524 436.588 326.334 442.623 334.448L447.933 339.772C448.1 331.488 447.776 319.38 450.256 311.604C452.013 300.592 457.521 287.837 463.241 278.283C467.193 271.371 470.742 266.868 475.889 260.988C488.605 245.149 512.334 233.036 531.785 228.055ZM484.092 791.01C509.348 779.089 534.219 765.805 556.869 749.398C564.202 744.086 571.026 738.279 578.067 732.586C575.235 729.907 572.215 725.924 568.968 722.869C562.024 716.613 556.06 711.739 550.211 704.475C539.268 690.885 555.169 673.2 569.576 676.626C581.849 679.544 599.903 695.237 606.787 705.612C608.89 702.949 611.132 700.267 613.282 697.629C598.599 681.088 577.862 663.606 559.333 651.439C537.89 653.607 509.838 661.741 487.846 666.119C490.957 698.03 494.555 725.878 490.369 758.364C488.803 770.517 485.976 779.75 484.092 791.01ZM670.863 624.962C666.102 625.484 637.869 632.232 633.703 634.177L633.249 634.834C639.274 640.27 646.7 646.644 651.876 652.655C658.147 643.384 664.475 634.153 670.863 624.962ZM224.663 811.341C228.287 811.657 239.653 813.838 243.132 814.897C244.598 813.046 253.46 781.486 256.997 774.24C253.736 778.876 248.032 784.46 244.168 789.008C237.581 796.761 232.293 804.603 224.663 811.341Z"/><path fill="#FEE959" d="M835.74 455.728C835.134 451.187 836.106 441.143 841.378 439.742C847.385 442.486 840.085 465.773 853.338 461.033L860.709 457.164L861.455 458.808C861.159 461.416 861.463 465.215 861.581 467.925C861.871 470.279 861.79 471.294 863 473.241C865.142 474.571 865.56 473.824 867.518 472.372C871.306 470.187 873.422 469.855 877.711 470.192C880.665 471.205 881.086 471.265 883.595 469.393C886.117 470.435 887.26 470.128 889.96 469.472C885.588 506.612 953.101 487.382 966.643 542.014C979.658 542.711 986.237 553.509 978.219 564.381C976.52 566.684 974.431 568.592 972.987 571.05C973.839 584.463 975.23 597.84 976.234 611.246C977.578 629.212 978.963 647.197 980.27 665.166C981.43 681.118 983.275 696.996 983.033 713.018C996.458 720.97 993.831 729.588 983.211 738.32C982.239 754.204 975.959 764.716 964.5 775.487C960.357 779.382 948.33 785.352 947.929 790.124C947.309 797.512 958.24 809.325 945.39 812.221C943.241 812.705 939.908 814.553 937.387 813.17C929.936 808.342 928.145 798.22 921.716 791.177C901.163 788.296 881.6 780.619 870.985 761.634C853.965 761.159 849.78 748.701 862.326 738.167C859.36 728.73 856.594 720.339 852.912 711.157C844.813 730.286 831.003 751.975 819.05 768.876C771.074 837.618 703.942 890.735 626.009 921.615C506.534 969.991 397.84 965.401 280.183 915.557C224.818 892.708 175.186 857.905 134.84 813.637C127.834 810.5 105.072 776.233 100.346 768.481C108.391 774.262 115.224 775.318 123.675 779.189C145.727 789.291 168.256 795.847 191.058 803.811C200.516 808.261 214.045 814.057 224.663 811.341C228.287 811.657 239.653 813.838 243.132 814.897C245.968 816.59 247.871 817.501 250.848 818.888C246.382 828.64 238.576 842.819 241.757 853.642C249.858 865.593 262.109 873.438 275.944 864.009C277.156 863.186 278.331 862.309 279.464 861.38C286.058 850.41 291.321 836.275 297.761 824.753C315.478 828.406 316.252 827.058 332.528 826.348C380.009 862.819 438.706 858.378 470.201 804.473C473.478 802.579 475.11 795.24 484.092 791.01C509.348 779.089 534.219 765.805 556.869 749.398C564.202 744.086 571.026 738.279 578.067 732.586C575.235 729.907 572.215 725.924 568.968 722.869C562.024 716.613 556.06 711.739 550.211 704.475C539.268 690.885 555.169 673.2 569.576 676.626C581.849 679.544 599.903 695.237 606.787 705.612C608.89 702.949 611.132 700.267 613.282 697.629C630.862 715.359 643.909 734.105 653.451 757.163C655.072 761.08 657.682 766.328 658.986 770.195C660.683 769.364 660.829 768.699 661.728 767.03C662.211 768.371 662.915 770.158 663.261 771.489C666.574 780.377 668.073 792.548 669.8 801.874C672.119 814.396 670.566 831.998 686.137 836.208C692.565 837.905 699.414 836.701 704.878 832.913C713.404 827 718.41 817.566 724.658 809.709C735.537 796.03 750.677 775.652 765.92 767.037C766.237 766.477 768.942 764.487 769.661 763.981C788.325 750.866 797.565 752.933 805.957 729.896C805.239 728.155 804 725.753 803.163 723.992C793.948 712.966 795.099 709.272 778.206 708.394L777.268 706.076C747.105 710.925 726.954 733.389 706.481 753.352C703.659 742.697 697.8 730.439 694.137 719.545C693.486 715.885 692.104 713.276 690.6 709.86C704.843 691.91 722.639 661.201 732.728 640.451C747.572 609.922 762.214 562.435 763.761 528.377L764.21 528.012C775.803 524.113 801.814 508.884 808.307 498.65C817.119 489.14 835.542 468.538 835.74 455.728Z"/><path fill="#DDB231" d="M835.74 455.728C835.134 451.187 836.106 441.143 841.378 439.742C847.385 442.486 840.085 465.773 853.338 461.033L860.709 457.164L861.455 458.808C861.159 461.416 861.463 465.215 861.581 467.925C861.871 470.279 861.79 471.294 863 473.241C865.142 474.571 865.56 473.824 867.518 472.372C871.306 470.187 873.422 469.855 877.711 470.192C880.665 471.205 881.086 471.265 883.595 469.393C886.117 470.435 887.26 470.128 889.96 469.472C885.588 506.612 953.101 487.382 966.643 542.014C979.658 542.711 986.237 553.509 978.219 564.381C976.52 566.684 974.431 568.592 972.987 571.05C973.839 584.463 975.23 597.84 976.234 611.246C977.578 629.212 978.963 647.197 980.27 665.166C981.43 681.118 983.275 696.996 983.033 713.018C996.458 720.97 993.831 729.588 983.211 738.32C982.239 754.204 975.959 764.716 964.5 775.487C960.357 779.382 948.33 785.352 947.929 790.124C947.309 797.512 958.24 809.325 945.39 812.221C943.241 812.705 939.908 814.553 937.387 813.17C929.936 808.342 928.145 798.22 921.716 791.177C901.163 788.296 881.6 780.619 870.985 761.634C853.965 761.159 849.78 748.701 862.326 738.167C859.36 728.73 856.594 720.339 852.912 711.157C851.493 704.412 846.742 690.851 843.977 684.548C842.499 678.934 841.371 675.604 838.729 670.46C837.119 662.776 830.424 646.745 827.601 638.725C824.133 628.877 818.84 611.5 813.991 602.687C794.902 597.078 793.315 588.511 808.888 576.085C806.609 566.194 805.965 556.202 809.666 546.533C815.624 530.972 841.657 504.11 856.288 497.426C858.043 492.621 857.381 488.891 857.098 483.808C854.946 481.74 847.69 478.469 844.728 476.26C839.189 472.128 836.656 462.282 835.74 455.728Z"/><path fill="#6F7456" d="M860.709 457.164L861.455 458.808C861.159 461.416 861.463 465.215 861.581 467.925C861.254 474.432 862.368 474.632 863.491 480.705L862.936 481.371C855.105 481.856 854.05 466.458 853.338 461.033L860.709 457.164Z"/><path fill="#6F7456" d="M857.098 483.808C859.92 483.995 865.114 484.278 867.82 484.907C869.234 486.156 870.522 487.24 871.799 488.634C866.953 492.352 862.444 496.32 856.288 497.426C858.043 492.621 857.381 488.891 857.098 483.808Z"/><path fill="#6F7456" d="M867.518 472.372C871.306 470.187 873.422 469.855 877.711 470.192C877.497 472.626 877.906 472.052 876.574 473.626C873.348 475.059 870.305 474.629 867.518 472.372Z"/><path fill="#FEE959" d="M927.287 577.632C928.522 577.537 927.985 577.38 928.925 577.996C929.982 582.313 930.59 588.948 931.155 593.485L934.281 617.881L942.196 677.347C943.994 691.309 945.609 705.951 947.731 719.811C932.042 721.843 914.806 727.084 898.833 729.889C897.579 725.497 896.372 721.092 895.214 716.674C890.738 703.676 887.208 688.477 883.413 675.153C875.56 647.581 868.13 619.804 860.07 592.292C882.592 588.152 905.066 581.857 927.287 577.632Z"/><path fill="#DDDE74" d="M922.458 584.101L923.343 584.341C925.937 588.314 926.775 608.947 927.024 614.693C921.134 610.973 914.833 607.451 908.777 603.969C904.277 601.415 899.822 598.783 895.414 596.073L893.419 590.827C901.564 589.666 914.181 586.201 922.458 584.101Z"/><path fill="#DDDE74" d="M891.26 591.63L892.245 591.867C893.977 594.416 893.183 598.947 892.94 602.095C890.846 605.452 877.999 620.249 874.317 620.086L873.428 618.583C871.417 611.351 869.289 604.153 867.045 596.99C874.425 594.704 883.64 593.098 891.26 591.63Z"/><path fill="#FEE959" d="M964.223 569.173L965.064 569.39C966.381 571.904 966.573 578.621 966.728 581.746C968.883 625.291 974.514 669.273 976.585 712.732C969.976 714.179 959.949 717.292 953.579 717.779C952.289 717.008 952.642 716.831 952.11 714.837C950.654 692.762 946.447 668.958 943.746 646.845C940.868 623.294 938.704 599.292 935.269 575.876C944.529 573.502 954.811 570.786 964.223 569.173Z"/><path fill="#DDDE74" d="M952.552 598.778C957.491 600.761 962.087 611.168 963.213 616.336C964.924 624.185 965.25 632.468 965.823 640.481L968.186 674.753C968.907 685.541 969.358 696.057 971.629 706.663C969.223 707.287 966.808 707.874 964.385 708.424L957.226 710.41C954.313 694.774 953.246 677.633 951.269 661.598C949.418 646.589 945.995 629.73 946.106 614.701C946.13 611.479 950.938 602.132 952.552 598.778Z"/><path fill="#DDDE74" d="M959.585 575.607L960.044 575.718C962.279 578.139 962.486 599.001 963.03 604.056L951.961 586.07L951.31 586.222L950.521 587.997C948.56 593.343 946.649 596.767 943.915 601.683C942.603 595.119 941.825 587.991 941.316 581.319C946.862 578.771 953.64 577.143 959.585 575.607Z"/><path fill="#FEE959" d="M851.258 594.63L852.379 594.817C854.736 597.933 857.387 611.615 858.89 616.767C870.333 654.95 881.159 693.315 891.365 731.848C884.103 733.377 876.874 735.054 869.681 736.876L867.712 731.633C852.068 688.447 837.437 644.412 822.022 601.058C831.045 598.316 841.868 596.442 851.258 594.63Z"/><path fill="#DDDE74" d="M849.978 620.633C852.766 622.858 857.039 630.448 858.28 633.884C869.21 664.166 875.44 696.771 885.545 727.174L877.047 728.919C875.246 729.458 875.198 729.543 873.242 729.551C871.812 728.646 871.898 728.514 871.166 726.524C866.757 714.541 863.491 702.099 859.357 690.021C853.828 673.868 846.176 656.927 841.988 640.494C844.151 634.29 847.549 627.446 849.978 620.633Z"/><path fill="#DDDE74" d="M842.769 601.65L845.864 601.355C851.443 604.249 841.587 624.994 839.504 630.025L838.956 630.142L838.049 628.371C834.93 620.376 831.869 612.359 828.866 604.32C833.48 603.328 838.116 602.438 842.769 601.65Z"/><path fill="#6F7456" d="M874.994 492.308C878.931 493.902 880.515 495.019 883.638 497.765C895.782 508.441 911.116 515.063 917.594 531.033C920.338 537.798 921.363 543.821 922.738 551.016C911.865 553.913 900.709 556.111 889.686 558.399C878.442 560.942 865.491 564.153 854.212 565.717C840.436 543.275 859.028 508.765 874.994 492.308Z"/><path fill="#6F7456" d="M963.8 550.138C965.181 550.13 968.387 550.458 969.453 551.082C986.667 561.165 952.392 565.247 946.999 566.377C934.809 568.928 922.636 571.565 910.482 574.287L855.079 586.628C841.826 589.571 828.46 592.722 815.066 594.877C811.117 595.509 804.704 595.752 803.73 591.195C801.883 582.555 829.563 579.023 834.682 577.903L883.678 567.557C909.408 562.081 938.267 554.571 963.8 550.138Z"/><path fill="#6F7456" d="M973.566 720.677C983.049 719.688 988.714 728.049 979.788 730.364C965.633 734.037 950.804 736.973 936.462 740.009L875.483 753.361C871.064 754.041 865.877 755.272 863.14 751.042C862.475 743.057 883.48 740.223 889.312 738.955L921.977 732.031C937.761 728.608 958.195 722.939 973.566 720.677Z"/><path fill="#6F7456" d="M854.916 505.989L855.135 506.209C855.133 507.754 850.249 516.93 849.235 519.145C840.567 538.08 839.93 548.599 847 567.662C839.169 569.012 827.411 571.969 819.527 573.854C818.804 573.546 818.044 573.173 817.654 572.431C803.431 545.389 836.4 519.143 854.916 505.989Z"/><path fill="#6F7456" d="M948.8 744.608C949.536 744.551 949.661 744.667 950.415 744.84C951.045 745.855 951.028 745.864 951.148 747.063C952.183 757.442 950.911 768.481 943.927 776.706C940.932 780.234 936.325 782.825 931.686 782.881C924.894 782.964 921.119 779.803 916.489 775.663C910.219 768.615 908.425 762.955 905.317 754.216C919.784 750.889 934.279 747.687 948.8 744.608Z"/><path fill="#6F7456" d="M899.219 500.881C908.024 500.903 926.128 507.195 934.039 511.221C950.283 519.486 954.781 526.716 960.289 543.11L955.313 544.318C946.775 546.359 937.241 548.159 928.582 549.986C928.567 548.656 928.503 547.327 928.391 546.002C926.281 523.363 915.159 513.914 899.219 500.881Z"/><path fill="#6F7456" d="M896.162 756.137C897.065 755.971 897.608 755.962 898.525 755.901C899.848 757.243 901.776 765.1 903.079 767.62C905.899 773.076 909.213 777.385 912.813 782.275C907.874 780.767 903.979 779.356 899.195 777.527C889.313 773.526 884.027 769.118 878.023 760.397C883.618 758.633 890.414 757.267 896.162 756.137Z"/><path fill="#6F7456" d="M972.841 739.629C974.888 739.339 974.511 739.095 976.195 739.749C976.821 741.735 975.717 745.2 975.212 747.261C972.506 758.299 964.4 764.529 956.07 771.473C955.071 772.228 955.64 772.061 954.419 772.172C954.31 769.802 956.551 766.611 957.002 764.468C958.549 757.109 958.159 750.048 956.905 742.782C962.229 741.795 967.542 740.744 972.841 739.629Z"/><path fill="#DDB231" d="M578.067 732.586C588.559 741.693 594.309 754.837 601.561 766.071C604.212 771.649 606.869 777.06 608.942 782.892C547.895 829.52 463.541 858.258 387.574 866.491C362.186 869.242 332.235 867.769 306.752 865.326C298.342 864.519 289.711 861.845 281.25 861.469L279.464 861.38C286.058 850.41 291.321 836.275 297.761 824.753C315.478 828.406 316.252 827.058 332.528 826.348C380.009 862.819 438.706 858.378 470.201 804.473C473.478 802.579 475.11 795.24 484.092 791.01C509.348 779.089 534.219 765.805 556.869 749.398C564.202 744.086 571.026 738.279 578.067 732.586Z"/><path fill="#FEFEFE" d="M578.067 732.586C575.235 729.907 572.215 725.924 568.968 722.869C562.024 716.613 556.06 711.739 550.211 704.475C539.268 690.885 555.169 673.2 569.576 676.626C581.849 679.544 599.903 695.237 606.787 705.612C608.042 709.031 610.341 713.112 612.289 716.208L611.322 717.204C614.539 721.987 617.697 726.839 621.231 731.39C631.483 751.971 639.901 770.159 644.163 792.975C647.115 808.783 653.105 844.714 625.378 839.598C622.626 839.036 616.883 834.343 616.004 831.496C613.154 824.34 614.757 815.473 614.475 807.748C614.205 800.349 613.737 794.387 611.231 787.372C610.315 786.168 609.585 784.322 608.942 782.892C606.869 777.06 604.212 771.649 601.561 766.071C594.309 754.837 588.559 741.693 578.067 732.586Z"/><path fill="#1A343B" d="M578.067 732.586C575.235 729.907 572.215 725.924 568.968 722.869C562.024 716.613 556.06 711.739 550.211 704.475C539.268 690.885 555.169 673.2 569.576 676.626C581.849 679.544 599.903 695.237 606.787 705.612C608.042 709.031 610.341 713.112 612.289 716.208L611.322 717.204C603.962 708.152 596.731 699.603 587.737 692.151C582.001 687.398 576.991 683 569.27 682.222C562.461 681.535 554.087 686.079 553.744 693.608C553.704 698.661 557.388 702.359 560.852 705.674C579.997 722.943 593.454 739.633 603.163 764.057L601.561 766.071C594.309 754.837 588.559 741.693 578.067 732.586Z"/><path d="M603.163 764.057C606.641 771.888 609.254 778.955 611.231 787.372C610.315 786.168 609.585 784.322 608.942 782.892C606.869 777.06 604.212 771.649 601.561 766.071L603.163 764.057Z"/><path fill="#DDB231" d="M134.84 813.637C127.834 810.5 105.072 776.233 100.346 768.481C108.391 774.262 115.224 775.318 123.675 779.189C145.727 789.291 168.256 795.847 191.058 803.811C200.516 808.261 214.045 814.057 224.663 811.341C228.287 811.657 239.653 813.838 243.132 814.897C245.968 816.59 247.871 817.501 250.848 818.888C246.382 828.64 238.576 842.819 241.757 853.642C239.336 856.291 161.719 829.293 153.44 821.913C150.91 819.657 137.495 813.065 134.84 813.637Z"/><path fill="#ACA76B" d="M838.729 670.46C841.371 675.604 842.499 678.934 843.977 684.548C842.59 687.423 841.394 690.926 840.086 693.939C835.209 705.207 829.341 716 823.065 726.56C822.084 728.211 819.31 735.75 816.613 735.463C812.996 735.132 810.82 732.698 812.238 728.944C819.508 709.683 831.459 690.508 838.431 671.292L838.729 670.46Z"/><path d="M663.261 771.489C666.574 780.377 668.073 792.548 669.8 801.874C672.119 814.396 670.566 831.998 686.137 836.208C692.565 837.905 699.414 836.701 704.878 832.913C713.404 827 718.41 817.566 724.658 809.709C735.537 796.03 750.677 775.652 765.92 767.037C761.333 773.752 750.418 780.023 744.988 786.69C739.966 792.856 734.539 798.677 729.856 805.134C719.224 819.792 702.328 849.367 680.316 835.094C668.551 827.466 669.437 808.551 666.511 796.239C664.878 789.25 662.902 782.587 660.773 775.569C660.196 774.249 659.455 771.659 658.986 770.195C660.683 769.364 660.829 768.699 661.728 767.03C662.211 768.371 662.915 770.158 663.261 771.489Z"/><path fill="#384D47" d="M661.728 767.03C662.211 768.371 662.915 770.158 663.261 771.489C663.144 773.473 663.498 774.603 662.44 775.629C661.324 775.416 661.507 775.227 660.773 775.569C660.196 774.249 659.455 771.659 658.986 770.195C660.683 769.364 660.829 768.699 661.728 767.03Z"/><path d="M777.268 706.076C785.977 705.891 789.742 707.344 796.534 713.398C798.996 715.592 802.639 720.789 803.163 723.992C793.948 712.966 795.099 709.272 778.206 708.394L777.268 706.076Z"/><path d="M612.289 716.208C614.709 719.645 620.71 727.578 621.231 731.39C617.697 726.839 614.539 721.987 611.322 717.204L612.289 716.208Z"/><path fill="#2A5055" d="M575.624 885.406C582.108 885.637 591.571 890.864 597.915 893.069C602.287 894.588 613.171 898.295 613.682 903.393C612.848 905.042 612.983 904.594 611.254 905.783C603.914 906.599 575.857 895.44 573.12 888.809C573.649 886.783 573.849 887.133 575.624 885.406Z"/><path fill="#2A5055" d="M633.64 861.423C640.903 862.115 667.701 870.416 670.197 877.496C669.703 879.231 670.156 878.427 668.325 879.688C660.368 879.674 633.069 872.896 631.226 864.562C631.846 862.557 631.828 863.061 633.64 861.423Z"/><path fill="#2A5055" d="M604.191 872.946C611.319 873.379 636.873 880.161 641.23 886.014C641.169 887.785 640.892 887.534 639.559 889.285C631.777 890.497 615.728 884.216 607.829 881.76C605.457 881.022 603.417 880.097 602.395 877.832C602.491 875.661 603.118 874.927 604.191 872.946Z"/><path fill="#2A5055" d="M660.804 848.138C667.197 848.542 694.048 851.949 696.046 857.723C694.972 859.338 693.659 859.875 691.968 860.869C686.449 861.049 656.738 858.425 657.276 850.769C658.319 849.071 658.993 848.966 660.804 848.138Z"/><defs><linearGradient id="gradient_0" gradientUnits="userSpaceOnUse" x1="228.17395" y1="373.5314" x2="332.52222" y2="820.34259"><stop offset="0" stop-color="#0E262C"/><stop offset="1" stop-color="#274B51"/></linearGradient></defs><path fill="url(#gradient_0)" d="M251.194 371.442C254.21 370.077 252.263 368.936 254.745 367.772L255.114 368.263C254.348 371.291 251.747 375.312 252.614 376.906C246.482 393.214 244.272 402.763 245.506 420.622C246.667 437.414 250.703 453.789 254.277 470.222L266.037 525.05C273.825 561.88 282.042 598.618 290.687 635.256C294.328 650.501 297.854 666.416 303.156 681.07C304.62 685.117 312.972 693.483 317.016 694.303C328.948 696.724 347.374 690.823 358.922 688.06L404.787 677.373C414.354 675.077 425.703 671.798 435.226 670.181C442.706 707.472 447.649 755.276 426.388 788.938C411.986 811.739 384.595 808.627 364.648 795.097C355.93 789.195 348.221 781.925 341.82 773.567C337.964 768.562 334.312 763.031 330.752 757.53C323.805 746.799 315.882 733.039 300.995 733.822C295.399 734.116 289.54 738.618 286.795 743.292C281.007 753.289 276.449 764.223 271.648 774.745C264.85 789.523 257.917 804.238 250.848 818.888C247.871 817.501 245.968 816.59 243.132 814.897C244.598 813.046 253.46 781.486 256.997 774.24C253.736 778.876 248.032 784.46 244.168 789.008C237.581 796.761 232.293 804.603 224.663 811.341C214.045 814.057 200.516 808.261 191.058 803.811C190.734 799.901 189.809 792.774 191.766 789.444C195.157 783.675 200.961 777.443 205.411 772.394C213.521 763.173 221.725 754.034 230.021 744.979C235.493 738.917 240.826 732.066 246.798 726.571C261.614 712.94 276.278 718.827 281.676 737.247C286.506 733.92 294.02 728.995 299.989 728.63C322.278 727.463 331.545 750.449 342.926 765.367C355.914 782.391 377.221 802.234 400.525 799.906C407.703 799.189 415.498 793.936 419.601 788.032C440.259 758.308 434.538 713.037 429.918 679.335C413.753 681.54 401.804 684.937 386.049 688.7C374.147 691.443 362.228 694.108 350.291 696.694C343.377 698.243 332.916 701.623 326.5 701.972C321.366 702.283 316.25 701.104 311.77 698.577C301.363 692.583 297.305 682.075 294.348 671.22C289.512 653.467 285.768 635.621 281.818 617.67L265.181 542.601C260.343 520.796 255.66 498.958 251.131 477.088C247.249 459.048 242.054 439.263 241.235 420.888C240.601 406.664 244.239 383.93 251.194 371.442Z"/><path fill="#FEFEFE" d="M259.521 724.537C270.149 724.334 272.834 728.281 275.889 737.556C270.659 750.833 248.644 770.761 239.731 783.424C236.984 786.582 234.404 790.07 231.69 793.231C224.136 802.026 223.822 805.926 211.959 807.276C202.906 806.909 200.104 804.923 196.154 796.816C197.903 791.749 201.029 785.972 204.502 781.665C218.752 763.99 235.385 748.009 250.4 730.925C252.57 728.455 256.612 725.923 259.521 724.537Z"/><path fill="#DDB231" d="M741.95 531.729C748.939 530.189 754.665 528.72 761.405 526.436L764.21 528.012L763.761 528.377C762.214 562.435 747.572 609.922 732.728 640.451C722.639 661.201 704.843 691.91 690.6 709.86C676.789 682.501 672.753 676.399 651.876 652.655C658.147 643.384 664.475 634.153 670.863 624.962C675.552 619.945 723.282 614.819 729.906 601.518C734.498 592.299 733.651 587.723 731.801 578.111C730.577 568.728 725.16 545.916 722.179 536.886L720.345 535.873C720.236 535.688 720.122 534.882 720.076 534.628C721.982 533.309 737.994 532.293 741.95 531.729Z"/><path fill="#102948" d="M720.345 535.873C720.236 535.688 720.122 534.882 720.076 534.628C721.982 533.309 737.994 532.293 741.95 531.729C742.696 532.624 743.036 533.132 743.937 533.883C739.178 534.979 735.506 535.714 730.648 536.197C729.131 536.347 723.05 536.622 722.179 536.886L720.345 535.873Z"/><path fill="#1A343B" d="M741.95 531.729C748.939 530.189 754.665 528.72 761.405 526.436L764.21 528.012L763.761 528.377C756.964 530.659 751.068 532.515 743.937 533.883C743.036 533.132 742.696 532.624 741.95 531.729Z"/><path fill="#2A5055" d="M481.208 660.48C502.025 655.885 522.74 650.551 543.553 645.907C550.338 644.394 556.932 642.809 563.878 642.206C597.019 661.333 631.922 698.498 648.642 732.854C654.562 745.017 657.698 754.135 661.728 767.03C660.829 768.699 660.683 769.364 658.986 770.195C657.682 766.328 655.072 761.08 653.451 757.163C643.909 734.105 630.862 715.359 613.282 697.629C598.599 681.088 577.862 663.606 559.333 651.439C537.89 653.607 509.838 661.741 487.846 666.119C490.957 698.03 494.555 725.878 490.369 758.364C488.803 770.517 485.976 779.75 484.092 791.01C475.11 795.24 473.478 802.579 470.201 804.473C487.485 766.739 487.7 732.112 484.676 691.171C484.006 682.102 483.14 669.008 481.208 660.48Z"/><path fill="#FEE959" d="M888.714 434.99C894.025 442.631 895.524 449.373 893.931 458.735C893.496 461.29 891.468 467.481 889.96 469.472C887.26 470.128 886.117 470.435 883.595 469.393C881.086 471.265 880.665 471.205 877.711 470.192C873.422 469.855 871.306 470.187 867.518 472.372C865.56 473.824 865.142 474.571 863 473.241C861.79 471.294 861.871 470.279 861.581 467.925C861.463 465.215 861.159 461.416 861.455 458.808C868.483 451.117 871.67 448.082 877.04 439.012C880.463 439.793 880.795 440.692 883.184 443.105C884.837 445.838 885.343 446.773 886.581 449.76C888.027 444.781 887.291 439.751 888.714 434.99Z"/><path fill="#6F7456" d="M888.714 434.99C894.025 442.631 895.524 449.373 893.931 458.735C893.496 461.29 891.468 467.481 889.96 469.472C887.26 470.128 886.117 470.435 883.595 469.393C887.605 461.871 887.252 457.987 886.581 449.76C888.027 444.781 887.291 439.751 888.714 434.99Z"/><path d="M531.785 228.055C584.976 214.445 645.1 236.221 665.052 290.508C673.092 312.383 677.354 336.94 682.431 359.802C689.248 391.242 696.462 422.594 704.071 453.851C703.109 454.383 702.036 454.942 701.109 455.515C693.681 425.072 686.629 394.539 679.952 363.923C675.968 345.719 671.778 327.189 668.015 308.969C654.9 245.474 595.908 213.731 533.886 229.144L531.785 228.055Z"/><defs><linearGradient id="gradient_1" gradientUnits="userSpaceOnUse" x1="675.63794" y1="600.41199" x2="681.54272" y2="620.51025"><stop offset="0" stop-color="#17323E"/><stop offset="1" stop-color="#2C4B54"/></linearGradient></defs><path fill="url(#gradient_1)" d="M731.801 578.111C733.651 587.723 734.498 592.299 729.906 601.518C723.282 614.819 675.552 619.945 670.863 624.962C666.102 625.484 637.869 632.232 633.703 634.177L633.249 634.834C632.739 635.531 632.207 636.364 631.587 636.928C627.703 634.241 624.767 631.879 621.141 628.909C631.826 627.676 647.477 623.346 658.476 620.797C678.166 616.031 698.056 612.25 717.215 605.534C731.875 600.394 730.997 592.948 729.837 579.581C731.426 578.998 730.793 579.471 731.801 578.111Z"/><defs><linearGradient id="gradient_2" gradientUnits="userSpaceOnUse" x1="751.63641" y1="443.62845" x2="770.36713" y2="480.7908"><stop offset="0" stop-color="#0A2634"/><stop offset="1" stop-color="#26424F"/></linearGradient></defs><path fill="url(#gradient_2)" d="M800.163 417.731L802.711 418.228L802.635 418.823C801.826 425.566 801.986 432.689 801.26 439.413C799.692 453.93 788.797 467.802 777.638 476.642C761.373 489.527 736.609 497.827 715.771 495.855C715.764 493.659 715.089 493.307 713.554 491.488C715.59 491.518 717.226 491.407 719.181 491.994C734.007 493.686 755.533 486.451 767.838 478.613C781.078 470.18 794.879 456.252 797.239 440.083C798.423 431.975 798.254 425.974 800.163 417.731Z"/><path fill="#2A5055" d="M297.761 824.753C301.906 816.786 305.634 808.608 308.93 800.253C317.127 812.721 321.501 816.375 332.528 826.348C316.252 827.058 315.478 828.406 297.761 824.753Z"/><defs><linearGradient id="gradient_3" gradientUnits="userSpaceOnUse" x1="748.42969" y1="737.0097" x2="735.55518" y2="724.53821"><stop offset="0" stop-color="#0A1C21"/><stop offset="1" stop-color="#224150"/></linearGradient></defs><path fill="url(#gradient_3)" d="M706.481 753.352C726.954 733.389 747.105 710.925 777.268 706.076L778.206 708.394C751.657 715.883 724.381 737.342 708.172 759.623L706.481 753.352Z"/><path fill="#1A343B" d="M454.134 311.978C451.63 326.563 452.118 340.695 453.721 355.324C449.691 349.162 446.535 345.171 442.34 339.394C442.207 337.052 442.123 336.687 442.623 334.448L447.933 339.772C448.1 331.488 447.776 319.38 450.256 311.604L454.134 311.978Z"/><path d="M633.249 634.834C639.274 640.27 646.7 646.644 651.876 652.655C672.753 676.399 676.789 682.501 690.6 709.86C692.104 713.276 693.486 715.885 694.137 719.545C689.956 712.791 684.752 701.556 680.256 693.867C666.324 670.042 652.074 654.845 631.587 636.928C632.207 636.364 632.739 635.531 633.249 634.834Z"/><path fill="#B48A27" d="M870.704 397.53L871.476 397.975C872.536 398.592 873.083 399.019 874.051 399.763L874.788 399.854C880.054 408.237 881.148 417.377 881.076 426.993C884.766 429.879 885.999 430.955 888.714 434.99C887.291 439.751 888.027 444.781 886.581 449.76C885.343 446.773 884.837 445.838 883.184 443.105C880.795 440.692 880.463 439.793 877.04 439.012L878.752 435.117L877.191 435.29C881.63 421.244 879.224 409.498 870.704 397.53Z"/><path fill="#DDB231" d="M878.752 435.117C879.219 433.22 879.577 430.68 880.826 429.313C882.503 430.153 882.173 434.311 882.2 436.09C883.621 437.013 885.288 437.806 885.896 439.296C885.362 441.553 884.986 441.103 883.184 443.105C880.795 440.692 880.463 439.793 877.04 439.012L878.752 435.117Z"/><defs><linearGradient id="gradient_4" gradientUnits="userSpaceOnUse" x1="265.89722" y1="346.94931" x2="271.28586" y2="350.35062"><stop offset="0" stop-color="black"/><stop offset="1" stop-color="#0E252E"/></linearGradient></defs><path fill="url(#gradient_4)" d="M294.02 322.163C293.737 323.039 293.226 324.407 293.118 325.265C273.153 340.366 262.63 353.482 252.614 376.906C251.747 375.312 254.348 371.291 255.114 368.263L254.745 367.772C252.263 368.936 254.21 370.077 251.194 371.442C260.018 351.797 275.539 333.317 294.02 322.163Z"/><defs><linearGradient id="gradient_5" gradientUnits="userSpaceOnUse" x1="423.77243" y1="320.12573" x2="421.03229" y2="324.95575"><stop offset="0" stop-color="black"/><stop offset="1" stop-color="#072025"/></linearGradient></defs><path fill="url(#gradient_5)" d="M402.902 308.855C412.823 311.524 436.588 326.334 442.623 334.448C442.123 336.687 442.207 337.052 442.34 339.394C426.84 324.445 420.66 319.48 400.917 310.794C401.846 310.069 402.081 309.734 402.902 308.855Z"/><path fill="#1A343B" d="M327.078 307.176C348.808 298.67 381.272 301.14 402.902 308.855C402.081 309.734 401.846 310.069 400.917 310.794C376.695 301.657 353.704 302.231 329.064 308.641L327.078 307.176Z"/><path fill="#1A343B" d="M475.889 260.988C488.605 245.149 512.334 233.036 531.785 228.055L533.886 229.144C513.849 234.331 488.722 248.365 475.819 264.603L475.889 260.988Z"/><path d="M450.256 311.604C452.013 300.592 457.521 287.837 463.241 278.283C463.557 279.627 463.661 280.513 464.411 281.686C460.081 291.36 455.699 301.408 454.134 311.978L450.256 311.604Z"/><path d="M720.345 535.873L722.179 536.886C725.16 545.916 730.577 568.728 731.801 578.111C730.793 579.471 731.426 578.998 729.837 579.581C727.228 566.157 722.325 548.341 720.345 535.873Z"/><path fill="#1A343B" d="M294.02 322.163C301.089 315.857 317.879 309.867 327.078 307.176L329.064 308.641C314.13 313.255 306.382 316.814 293.118 325.265C293.226 324.407 293.737 323.039 294.02 322.163Z"/><path d="M808.307 498.65C801.814 508.884 775.803 524.113 764.21 528.012L761.405 526.436C779.763 520.523 794.134 511.422 808.307 498.65Z"/><path fill="#1A343B" d="M701.109 455.515C702.036 454.942 703.109 454.383 704.071 453.851L709.206 474.084L706.344 474.492L705.69 475.377C704.025 468.789 702.498 462.167 701.109 455.515Z"/><path fill="#1A343B" d="M475.889 260.988L475.819 264.603C471.433 270.512 468.048 275.2 464.411 281.686C463.661 280.513 463.557 279.627 463.241 278.283C467.193 271.371 470.742 266.868 475.889 260.988Z"/><path d="M705.69 475.377L706.344 474.492L709.206 474.084C710.135 478.696 711.169 483.287 712.306 487.853L709.016 489.184C707.732 484.529 706.741 480.08 705.69 475.377Z"/><path fill="#BF932F" d="M860.709 457.164C868.612 451.41 873.227 444.043 877.191 435.29L878.752 435.117L877.04 439.012C871.67 448.082 868.483 451.117 861.455 458.808L860.709 457.164Z"/><path fill="#1A343B" d="M712.306 487.853C712.702 488.919 713.334 490.421 713.554 491.488C715.089 493.307 715.764 493.659 715.771 495.855C710.741 494.848 710.517 493.865 709.016 489.184L712.306 487.853Z"/><path fill="#2A5055" d="M428.634 511.303L430 512.069C445.876 521.11 461.513 525.926 479.796 524.773C501.57 523.399 518.311 516.233 532.947 500.289C565.788 464.515 553.668 430.606 543.525 388.911C541.592 380.108 538.563 371.314 537.995 362.278C536.443 337.611 575.981 330.861 582.877 354.217C586.015 364.847 587.621 375.988 590.024 386.823C594.358 406.365 601.068 425.782 600.883 445.995C601.076 479.398 588.37 510.93 564.6 534.48C516.555 582.081 429.947 582.612 382.546 533.42C374.883 525.414 368.339 516.409 363.092 506.648C353.831 489.209 342.991 450.676 341.77 429.865C341.464 424.659 344.435 419.477 348.317 415.919C353.328 411.334 359.991 408.992 366.768 409.432C374.017 409.825 380.601 413.781 384.353 419.996C390.6 430.239 392.788 456.814 397.161 469.176C400.758 479.341 407.581 491.144 414.643 499.28C419.527 503.995 423.058 507.253 428.634 511.303Z"/><path d="M428.634 511.303C424.736 511.464 416.476 503.36 414.442 500.084L414.643 499.28C419.527 503.995 423.058 507.253 428.634 511.303Z"/><defs><linearGradient id="gradient_6" gradientUnits="userSpaceOnUse" x1="624.93738" y1="303.05301" x2="785.27417" y2="221.95544"><stop offset="0" stop-color="#D6AE2A"/><stop offset="1" stop-color="#FFF95B"/></linearGradient></defs><path fill="url(#gradient_6)" d="M534.263 99.2573C543.449 101.503 552.363 102.433 561.414 104.42C574.221 107.232 588.796 111.328 601.134 115.748C670.523 140.609 734.379 184.654 782.949 240.018C787.459 245.159 804.094 264.3 806.666 269.556C809.852 272.549 817.083 283.581 819.677 287.466C833.834 308.596 846.206 330.87 856.664 354.055C861.436 364.771 865.054 375.08 869.528 385.545C869.941 388.292 872.337 393.626 873.346 396.589L874.788 399.854L874.051 399.763C873.083 399.019 872.536 398.592 871.476 397.975L870.704 397.53C867.301 393.779 865.672 393.067 861.287 390.684C850.598 385.863 839.407 385.364 828.383 389.55C818.165 393.465 809.888 401.23 805.329 411.179C804.358 413.34 803.428 415.971 802.711 418.228L800.163 417.731C798.254 425.974 798.423 431.975 797.239 440.083C794.879 456.252 781.078 470.18 767.838 478.613C755.533 486.451 734.007 493.686 719.181 491.994C720.303 484.507 720.494 476.977 720.751 469.423C721.644 442.864 719.905 416.282 715.559 390.065C696.387 272.809 631.105 168.093 534.263 99.2573Z"/><path fill="#FEE959" d="M869.528 385.545L869.087 386.245C868.498 386.513 868.236 386.824 867.582 386.585C864.368 385.412 854.508 361.005 852.494 356.949C842.228 336.276 831.66 315.931 820.538 295.699C817.521 290.209 814.555 284.49 811.391 279.102C809.861 276.496 807.612 274.345 806.5 271.486C806.079 270.404 806.253 270.535 806.666 269.556C809.852 272.549 817.083 283.581 819.677 287.466C833.834 308.596 846.206 330.87 856.664 354.055C861.436 364.771 865.054 375.08 869.528 385.545Z"/><path d="M800.163 417.731C800.786 415.705 801.509 413.711 802.329 411.756C806.598 401.844 817.208 392.039 827.302 388.334C839.934 383.697 850.192 384.929 862.163 390.171L861.287 390.684C850.598 385.863 839.407 385.364 828.383 389.55C818.165 393.465 809.888 401.23 805.329 411.179C804.358 413.34 803.428 415.971 802.711 418.228L800.163 417.731Z"/><path fill="#BF932F" d="M862.163 390.171C865.582 391.923 870.876 396.072 873.346 396.589L874.788 399.854L874.051 399.763C873.083 399.019 872.536 398.592 871.476 397.975L870.704 397.53C867.301 393.779 865.672 393.067 861.287 390.684L862.163 390.171Z"/><path fill="#FEE959" d="M939.074 41.9654C950.891 37.0305 960.913 24.8545 971.292 17.6066C974.006 15.7119 975.44 14.8717 978.718 15.1217L979.309 16.2348C984.055 25.6091 975.831 58.1344 981.625 65.5779C995.771 73.5181 1008.29 76.2283 1019.4 88.2251C1005.35 94.8482 990.668 97.5527 976.179 102.325C976.073 102.475 975.965 102.623 975.862 102.775C970.414 110.801 964.617 145.688 956.817 147.264C955.384 147.554 953.957 146.828 952.942 145.864C945.033 138.351 940.753 124.338 933.667 115.58C921.043 114.674 912.149 114.832 899.416 115.455C884.131 116.163 878.399 115.319 889.26 100.758C895.745 92.0626 903.336 84.4202 909.94 75.9121C907.703 66.9943 894.682 40.2406 895.485 33.5977C895.648 32.253 896.051 31.7468 897.211 31.0459C902.286 27.9788 931.436 40.269 939.074 41.9654Z"/><path fill="#DDB231" d="M939.074 41.9654C950.891 37.0305 960.913 24.8545 971.292 17.6066C974.006 15.7119 975.44 14.8717 978.718 15.1217C968.002 25.2598 958.342 32.1076 946.268 40.2736C944.18 41.6853 941.925 43.5346 939.866 45.0638C928.875 40.6762 909.347 33.1335 897.662 32.0103C898.563 45.2022 912.321 67.3977 910.955 74.8686C910.045 79.8431 906.261 84.4518 903.012 88.1822C899.264 92.4859 887.074 104.473 886.816 109.495C886.754 110.697 887.142 111.668 888.041 112.478C891.028 115.168 898.123 113.871 901.836 113.477C910.046 113.559 925.498 111.801 932.623 112.999C939.111 114.089 950.378 143.526 955.801 145.387C963.202 141.489 969.07 108.534 974.146 101.977C978.625 96.1933 1014.72 93.9114 1014.45 86.3382C1010.74 79.9121 988.304 71.853 980.319 67.4717L978.671 66.3245C978.162 64.5448 976.879 60.2114 976.78 58.5176C976.33 50.7698 975.609 25.8038 977.968 19.6752L979.309 16.2348C984.055 25.6091 975.831 58.1344 981.625 65.5779C995.771 73.5181 1008.29 76.2283 1019.4 88.2251C1005.35 94.8482 990.668 97.5527 976.179 102.325C976.073 102.475 975.965 102.623 975.862 102.775C970.414 110.801 964.617 145.688 956.817 147.264C955.384 147.554 953.957 146.828 952.942 145.864C945.033 138.351 940.753 124.338 933.667 115.58C921.043 114.674 912.149 114.832 899.416 115.455C884.131 116.163 878.399 115.319 889.26 100.758C895.745 92.0626 903.336 84.4202 909.94 75.9121C907.703 66.9943 894.682 40.2406 895.485 33.5977C895.648 32.253 896.051 31.7468 897.211 31.0459C902.286 27.9788 931.436 40.269 939.074 41.9654Z"/><path fill="#DDB231" d="M951.493 110.829C950.242 109.034 950.17 109.558 950.437 107.974C952.518 106.69 956.96 107.815 959.403 108.296C963.469 111.989 964.056 112.849 966.298 117.89C963.898 116.119 962.791 115.379 960.765 113.1C960.109 117.474 962.903 121.377 960.821 123.963C955.244 125.233 952.974 120.352 951.074 116.192C951.28 114.326 951.389 112.705 951.493 110.829Z"/><path fill="#B48A27" d="M951.493 110.829C950.242 109.034 950.17 109.558 950.437 107.974C952.518 106.69 956.96 107.815 959.403 108.296C963.469 111.989 964.056 112.849 966.298 117.89C963.898 116.119 962.791 115.379 960.765 113.1C960.135 114.346 960.382 114.202 959.438 115.098C956.71 114.553 955.593 111.847 951.493 110.829Z"/><path fill="#B48A27" d="M925.168 101.187C926.859 101.146 927.865 101.468 928.57 103.049L928.075 103.927C923.997 106.148 913.834 106.352 909.017 106.539L907.202 106.776L906.389 106.249L906.712 106.798L906.116 106.733L905.82 106.259C908.903 104.139 921.08 101.721 925.168 101.187Z"/><path fill="#B48A27" d="M983.796 91.6343L984.676 91.9531L984.55 92.8854C981.585 95.6954 975.108 97.9622 971.13 99.5326C969.883 97.8654 969.408 97.1059 969.987 95.1308C972.833 92.4362 978.668 92.7368 983.168 91.7728L983.796 91.6343Z"/><path fill="#B48A27" d="M980.42 82.2157C982.896 82.0621 987.458 81.6374 989.508 82.8856L989.39 83.5654L987.457 84.475C984.878 84.6054 979.196 85.0481 977.297 83.2851C978.633 82.1881 978.428 82.524 980.42 82.2157Z"/><path fill="#B48A27" d="M921.24 91.495C922.762 92.1976 922.299 91.6335 922.934 92.9701C921.727 95.9741 919.418 96.4583 916.456 96.9674L915.303 96.4277L915.179 95.5985C916.527 93.885 919.246 92.6257 921.24 91.495Z"/><path fill="#B48A27" d="M985.28 87.1731C986.108 87.0145 987.37 87.0207 988.25 86.9875L988.664 87.4109C986.885 88.7128 985.735 88.6339 983.46 88.9474C981.425 89.3396 981.229 89.3853 979.19 89.228L979.002 88.78C981.229 87.4138 982.68 87.4743 985.28 87.1731Z"/><path fill="#FEE959" d="M75.3451 912.094C78.4874 911.868 83.749 911.027 85.7915 913.763C80.9414 921.011 73.0629 927.682 70.9038 936.641C66.8684 953.428 74.5184 971.067 91.5085 976.141C111.101 981.992 123.238 970.408 137.211 959.118C137.991 958.488 138.614 958.938 139.377 959.264C140.252 960.539 140.57 961.719 140.483 963.266C139.535 980.129 132.796 989.695 121.42 1000.79C114.503 1005.92 108.47 1009.67 99.95 1011.61C55.0919 1021.81 15.0703 974.676 41.4258 933.795C49.5488 921.195 60.9584 915.175 75.3451 912.094Z"/><path fill="#2A5055" d="M78.3188 916.084L79.3771 916.022C79.2099 917.218 72.4753 924.083 71.2167 926.507C68.4006 931.931 66.3984 938.126 65.9634 944.156C65.2444 953.331 68.2304 962.413 74.2545 969.371C86.728 983.54 108.502 985.373 123.729 974.639C128.298 971.418 133.256 966.395 137.52 962.551C135.155 975.31 122.842 981.974 111.033 984.443C99.8138 986.871 88.0897 984.688 78.4966 978.385C70.0149 972.763 64.1719 963.946 62.3004 953.944C59.9277 941.49 62.9531 932.976 69.8603 922.912C63.0522 925.567 57.0105 929.873 52.2784 935.441C44.95 944.176 42.4155 953.766 43.3463 964.972C43.4459 965.901 43.4175 965.762 43.5658 966.663C45.496 978.074 51.9089 988.24 61.3765 994.896C71.1173 1001.92 83.2742 1004.74 95.1114 1002.71C111.961 999.773 124.08 989.084 133.627 975.638C128.145 991.286 115.271 1002.32 99.1858 1006.24C86.5608 1009.25 73.2605 1007.12 62.2007 1000.33C51.1116 993.646 43.1417 982.82 40.053 970.245C37.364 958.959 39.348 947.066 45.5546 937.264C53.1456 925.309 64.8128 919.02 78.3188 916.084Z"/><path fill="#FEE959" d="M52.0095 15.1603C52.198 15.1306 52.3866 15.1009 52.5752 15.0712C64.7036 13.7874 76.841 17.4133 86.2777 25.1395C88.3663 26.8725 89.4426 27.7336 89.7171 30.3298C87.8093 33.1613 78.9414 32.6752 75.1487 34.0812C71.1919 35.5481 68.3703 36.8365 64.9592 39.3507C57.8798 44.5778 53.1589 52.3962 51.8295 61.0953C50.2375 71.6829 53.5649 84.7119 61.3301 92.1963C66.5275 97.2058 68.9299 97.6208 73.5204 103.861L69.7041 106.027C67.9567 106.703 66.1486 107.21 64.3046 107.543C38.6801 112.297 16.3795 92.1261 12.2671 67.5273C10.2023 55.5357 13.0876 43.2194 20.2636 33.3926C28.3594 22.1606 38.7696 17.307 52.0095 15.1603Z"/><path fill="#FEE959" d="M69.1162 103.787C58.5251 105.103 50.1961 104.497 40.611 99.2295C29.9374 93.3117 22.0512 83.3968 18.6868 71.6653C15.6478 61.3094 16.9317 50.1642 22.2459 40.7706C27.624 31.1843 36.6355 24.1674 47.2475 21.3028C61.3866 17.4674 71.8169 20.3554 84.0956 27.4523L83.9366 28.1609C81.8315 28.7833 76.455 30.5293 74.5568 30.8819C59.1504 36.9871 47.6602 46.3945 46.802 64.1604C46.3036 74.4762 50.393 85.5594 57.6246 92.9466C61.3468 96.749 65.5341 99.6993 69.1162 103.787Z"/><path fill="#2A5055" d="M69.1162 103.787C58.5251 105.103 50.1961 104.497 40.611 99.2295C29.9374 93.3117 22.0512 83.3968 18.6868 71.6653C15.6478 61.3094 16.9317 50.1642 22.2459 40.7706C27.624 31.1843 36.6355 24.1674 47.2475 21.3028C61.3866 17.4674 71.8169 20.3554 84.0956 27.4523L83.9366 28.1609L80.5432 27.5603C65.8649 23.3644 53.7654 21.4412 39.8259 29.1092C21.113 39.403 16.4093 62.6414 27.0209 80.5444C34.5515 93.2494 45.4325 98.3763 59.4984 100.615C54.9478 95.878 50.769 91.6761 47.4827 86.0125C36.9713 67.8974 44.0267 40.486 63.9456 32.0701C66.2087 31.1139 68.5686 30.4035 70.9104 29.7017C73.3502 29.9856 72.8571 29.5799 74.5568 30.8819C59.1504 36.9871 47.6602 46.3945 46.802 64.1604C46.3036 74.4762 50.393 85.5594 57.6246 92.9466C61.3468 96.749 65.5341 99.6993 69.1162 103.787Z"/><path fill="#384D47" d="M80.5432 27.5603L83.9366 28.1609C81.8315 28.7833 76.455 30.5293 74.5568 30.8819C72.8571 29.5799 73.3502 29.9856 70.9104 29.7017C74.1671 29.3092 77.49 28.758 80.5432 27.5603Z"/><path fill="#FEE959" d="M50.4907 423.268C57.8511 427.369 58.4486 435.327 65.7207 439.565C70.6491 442.438 86.5155 435.501 87.8447 440.698C86.1859 447.329 82.9656 449.509 79.3906 455.108C73.9658 463.603 80.3113 471.277 82.821 481.723C76.3219 479.962 69.9077 477.902 63.5987 475.55L61.7814 474.362C57.8597 474.606 50.1006 486.043 45.6932 486.762C38.6467 487.913 40.1278 469.468 40.5175 465.598C19.0286 452.668 23.6737 452.52 43.5488 444.451C46.2939 437.274 46.9858 430.711 50.4907 423.268Z"/><path fill="#B48A27" d="M851.556 905.079C856.787 909.541 858.97 917.466 861.427 923.96C866.44 925.008 871.557 926.001 876.527 927.22C879.469 927.942 882.583 928.525 882.539 931.956C880.42 936.314 872.787 941.133 868.59 944.122C868.694 948.204 869.016 951.877 869.31 955.926C869.561 959.384 871.244 965.579 867.113 966.648C861.939 965.555 854.779 958.982 850.636 955.375C846.622 958.457 838.196 964.877 833.216 965.302C827.668 963.284 832.306 948.851 833.39 944.46C826.997 939.133 822.221 935.469 817.833 928.382C824.477 924.386 832.435 924.983 840.412 923.252C844.203 918.208 846.677 910.072 851.556 905.079Z"/><path fill="#FEE959" d="M851.675 906.745C855.718 910.327 858.654 920.44 860.337 925.664C866.296 926.455 876.592 928.357 882.006 930.377C877.016 938.108 872.55 938.001 867.073 943.835C866.548 951.034 867.517 958.822 868.159 966.043C861.82 962.137 856.997 957.705 850.126 953.867C843.965 956.651 839.02 961.699 831.876 964.697C832.197 957.756 833.592 950.82 834.892 944.004C831.748 941.244 820.719 933.144 822.535 928.686C826.111 926.021 833.55 927.448 838.496 925.723C844.494 923.63 848.569 912.461 851.675 906.745Z"/><path fill="#FEE959" d="M209.925 189.508C206.895 188.782 194.814 182.775 193.432 180.14C194.177 174.316 209.47 172.596 211.098 169.496C214.756 162.535 212.32 156.573 217.234 148.465C224.9 153.986 226.823 158.886 233.242 165.673C239.959 164.127 247.138 162.157 253.94 162.6C254.42 169.21 247.67 177.631 244.041 183.489C246.607 189.039 250.268 196.228 252.012 201.774C245.121 201.823 237.743 199.712 231.188 197.659C225.651 205.214 222.322 208.912 215.152 215.029C212.508 209.266 211.791 205.389 211.507 199.086C211.392 196.53 211.464 191.25 209.925 189.508Z"/><path fill="#DDB231" d="M253.94 162.6C254.42 169.21 247.67 177.631 244.041 183.489C246.607 189.039 250.268 196.228 252.012 201.774C245.121 201.823 237.743 199.712 231.188 197.659C225.651 205.214 222.322 208.912 215.152 215.029C212.508 209.266 211.791 205.389 211.507 199.086C211.392 196.53 211.464 191.25 209.925 189.508C210.962 188.742 210.39 188.975 211.632 188.787C213.864 191.512 212.081 206.928 215.116 209.882C217.858 208.909 217.987 205.423 220.778 204.383C224.419 203.026 225.467 198.378 229.01 194.865C230.951 194.48 231.613 196.377 234.214 197.17C239.412 198.754 244.74 199.198 250.077 200.225C247.067 194.444 243.841 188.593 241.276 182.622C245.449 175.285 249.837 170.976 253.94 162.6Z"/><path fill="#FEE959" d="M974.229 346.991C974.845 347.402 975.025 347.359 975.259 347.862C978.444 352.663 979.189 360.999 982.316 367.372C989.807 371.176 996.252 370.943 1002.13 376.212L1001.51 376.696C996.658 380.474 991.679 381.773 987.183 384.175C983.863 385.949 984.818 403.539 983.355 407.244L982.634 407.76C981.999 407.45 981.509 407.29 980.999 406.85C975.328 404.59 971.82 398.234 966.553 395.539C961.66 393.036 949.477 403.226 945.004 400.821C944.506 398.865 949.068 383.294 949.898 380.184C944.138 373.527 941.474 369.81 937.005 362.455C944.14 362.094 950.935 362.657 958.033 363.196C965.09 358.303 967.504 351.517 974.229 346.991Z"/><path fill="#B48A27" d="M958.033 363.196C965.09 358.303 967.504 351.517 974.229 346.991C971.112 354.227 964.77 360.805 958.768 365.755C954.635 365.096 946.568 363.217 942.977 365.22C941.221 368.899 948.821 377.13 951.284 380.229C950.237 385.345 947.577 394.792 947.06 399.186C954.732 397.242 958.006 395.339 965.009 391.769C967.325 393.554 979.499 404.584 980.999 406.85C975.328 404.59 971.82 398.234 966.553 395.539C961.66 393.036 949.477 403.226 945.004 400.821C944.506 398.865 949.068 383.294 949.898 380.184C944.138 373.527 941.474 369.81 937.005 362.455C944.14 362.094 950.935 362.657 958.033 363.196Z"/><path fill="#B48A27" d="M975.259 347.862C978.444 352.663 979.189 360.999 982.316 367.372C989.807 371.176 996.252 370.943 1002.13 376.212L1001.51 376.696C996.658 380.474 991.679 381.773 987.183 384.175C983.863 385.949 984.818 403.539 983.355 407.244L982.634 407.76C981.999 407.45 981.509 407.29 980.999 406.85C982.163 404.68 982.43 389.226 982.593 385.614C986.45 382.408 994.705 379.125 997.242 376.061L996.96 375.173C993.008 372.731 985.712 370.752 980.774 368.212L980.136 367.879C978.361 362.796 975.307 352.979 975.259 347.862Z"/>
  </g>
</svg>