<?xml version="1.0" encoding="UTF-8"?>
<svg id="Layer_2" data-name="Layer 2" xmlns="http://www.w3.org/2000/svg" viewBox="0 0 538.21 621.21">
  <defs>
    <style>
      .cls-1 {
        fill: #87bf54;
      }

      .cls-1, .cls-2 {
        stroke-width: 0px;
      }

      .cls-2 {
        fill: #fff;
      }
    </style>
  </defs>
  <g id="Layer_1-2" data-name="Layer 1">
    <g>
      <g>
        <path class="cls-1" d="M438.32,592.71c-1.52,0-3.05-.18-4.57-.56-8.57-2.11-14.61-9.78-14.61-18.61,0-105.22-87.03-153.2-90.74-155.19-9.31-5-12.84-16.61-7.87-25.93,4.97-9.32,16.52-12.89,25.87-7.94,3.87,2.05,81.98,44.48,104.85,136.82,15.32-17.89,35.99-36.66,60.81-46.35,9.87-3.85,20.99,1.02,24.84,10.89,3.85,9.87-1.03,20.99-10.89,24.84-41.21,16.08-70.39,71.16-70.68,71.71-3.36,6.44-9.99,10.31-17,10.31Z"/>
        <path class="cls-1" d="M58.48,621.21c-2.84,0-5.73-.63-8.46-1.98-9.5-4.68-13.41-16.17-8.73-25.67l39.17-79.53c3.1-6.29,9.38-10.39,16.39-10.68,7.01-.26,13.62,3.25,17.24,9.26.41.68,43.57,69.52,79.35,48.06,34.3-20.59,29.69-99.26,25.37-125.2-1.74-10.44,5.31-20.32,15.75-22.07,10.43-1.76,20.32,5.28,22.08,15.72,2.17,12.86,19.35,126.74-43.46,164.43-42.85,25.72-84.88-2.38-112.3-34.15l-25.17,51.11c-3.34,6.78-10.14,10.71-17.22,10.71Z"/>
        <path class="cls-1" d="M386.1,594.05h-.17c-6.74-.09-12.13-5.63-12.04-12.37,1.07-78.14-49.06-110.37-51.19-111.71-5.7-3.56-7.47-11.07-3.93-16.78,3.54-5.71,11-7.5,16.73-4,2.62,1.6,64.07,40.3,62.81,132.83-.09,6.68-5.54,12.04-12.2,12.04Z"/>
        <path class="cls-1" d="M12.2,570.31c-2.83,0-5.68-.98-7.99-2.98-5.09-4.41-5.64-12.12-1.23-17.21l46.29-53.41c4.41-5.09,12.12-5.65,17.21-1.23,5.09,4.41,5.64,12.12,1.23,17.21l-46.29,53.41c-2.41,2.79-5.81,4.21-9.23,4.21Z"/>
      </g>
      <path class="cls-1" d="M457.89,391.15c10.65-2.34,17.36-12.84,15.02-23.49l-52.71-239.75c-11.51-52.37-63.29-85.48-115.66-73.97l-.99.22c-52.37,11.51-85.51,63.3-74,115.67l.04.2c-7.96-14.77-19.54-26.99-33.29-35.81-20.85-13.31-46.7-18.76-72.79-13.23-52.92,11.21-86.36,65.29-74.74,118.12l46.51,211.57c2.34,10.65,12.84,17.36,23.46,15.03l339.15-74.56ZM357.44,223.85c13.07,59.46-24.22,118.48-83.31,132.38-.53.14-1.06.26-1.59.38s-1.06.23-1.6.32c-59.47,12.17-118.08-25.77-131.15-85.23l-7.26-33c-2.45-11.15,4.61-22.22,15.78-24.68s22.23,4.63,24.68,15.78l7.26,33c8.17,37.15,44.65,60.92,81.79,53.66.54-.09,1.07-.21,1.6-.32s1.06-.23,1.59-.38c36.79-8.99,59.94-45.87,51.77-83.02l-12.49-56.83c-2.46-11.18,4.61-22.22,15.78-24.68,11.15-2.45,22.2,4.61,24.66,15.79l12.49,56.83Z"/>
      <path class="cls-2" d="M385.55,0h0c-2.2,47.15-42.22,83.59-89.37,81.38h0c47.15,2.2,83.59,42.22,81.38,89.37h0c2.2-47.15,42.22-83.59,89.37-81.38h0c-47.15-2.2-83.59-42.22-81.38-89.37Z"/>
    </g>
  </g>
</svg>